<svg id="Layer_1" data-name="Layer 1" xmlns="http://www.w3.org/2000/svg" viewBox="0 0 2059.2 535.392"><defs><style>.cls-1{font-size:349.545px;font-family:Poppins-ExtraBold, Poppins;font-weight:800;}.cls-1,.cls-2,.cls-3{fill:#BBBCBC;}.cls-2{font-size:89.175px;font-family:Poppins-SemiBold, Poppins;font-weight:600;letter-spacing:0.08em;}</style></defs><text class="cls-1" transform="translate(388.396 298.684)">DERECHO</text><text class="cls-2" transform="translate(889.005 412.901)">NCAR Supercomputer</text><path class="cls-3" d="M889.072,430.236c-16.477-7.494-34.423-14.542-49.824-18.641-53.912-14.346-108.758-17.663-164.486-13.671-78.421,5.618-154.206,23.652-229.95,43.272-67.061,17.372-135.279,27.069-204.6,15.094-52.877-9.134-100.192-30.263-134.84-72.71C82.3,355.314,66.424,322.2,62.439,285.952,47.465,149.731,154.061,51.4,281.129,75.282c38.8,7.293,89.439,41.894,104.514,70.045-3.892,2.46-5.585-1.236-7.588-2.978-74.663-64.937-183.3-45.8-229.534,41.686-29.119,55.1-17.874,129.866,31.437,169.974,38.934,31.667,84.284,41.2,131.559,46.975,67.159,8.211,133.013-2.864,198.738-14.654a919.111,919.111,0,0,1,187.373-13.81c51.976,1.394,103.338,7.035,151.563,28.866,10.863,4.918,17.081,10.283,26.794,17.022C879.06,420.542,889.072,430.236,889.072,430.236Z" transform="translate(-61.032 -32.381)"/><path class="cls-3" d="M922.327,453.56c-15.539-2.166-28.279-3.875-41-5.728A458.183,458.183,0,0,0,728.02,451.21c-51.127,9.805-97.57,30.672-140.911,59.5-70.012,46.561-147.346,63.914-230.823,54.674-33.4-3.7-65.429-12.6-96.651-24.729-5.383-2.091-5.4-2.055-12.836-9.651,10.666.891,19.534,1.241,28.287,2.429,46.913,6.364,93.71,5.69,140.163-3.3,40.813-7.9,78.783-23.944,115.726-42.634,35.209-17.813,69.045-38.314,105.933-52.847,50.443-19.874,102.746-24.965,156.408-21.864C824.273,414.573,910.628,439.428,922.327,453.56Z" transform="translate(-61.032 -32.381)"/><path class="cls-3" d="M425.8,191.156C364.058,152.941,305.829,154.3,253.81,205.731c-21.123,20.884-30.451,48.587-32.007,78.757-1.562,30.3,9.368,56.516,25.137,81.974-24.947-3.782-50.861-54.617-51.807-95.941-1.593-69.538,47.1-119.589,107.955-131.351C355.326,129.075,414.176,161.857,425.8,191.156Z" transform="translate(-61.032 -32.381)"/></svg>