<?xml version="1.0" encoding="utf-8"?>
<!-- Generator: Adobe Illustrator 28.1.0, SVG Export Plug-In . SVG Version: 6.00 Build 0)  -->
<svg version="1.1" id="Layer_1" xmlns="http://www.w3.org/2000/svg" xmlns:xlink="http://www.w3.org/1999/xlink" x="0px" y="0px"
	 viewBox="0 0 2173.8 612" style="enable-background:new 0 0 2173.8 612;" xml:space="preserve">
<style type="text/css">
	.st0{enable-background:new    ;}
	.st1{fill:#BBBCBC;}
</style>
<g class="st0">
	<path class="st1" d="M691.7,208.4c0,72.7-50.3,122.7-128.6,122.7h-91.9V85.7H563C641.3,85.7,691.7,135.3,691.7,208.4z M559.2,279.3
		c45.1,0,71.7-25.9,71.7-71s-26.6-71.7-71.7-71.7h-28.3v142.6H559.2z"/>
	<path class="st1" d="M875.5,133.6H785v49.6h80v46.1h-80v53.8h90.5v47.9H725.2V85.7h150.3V133.6z"/>
	<path class="st1" d="M1014.6,85.7c60.1,0,90.2,34.6,90.2,77.2c0,30.8-16.8,59.8-54.5,71l56.6,97.2h-67.5l-51-92.6h-14.3v92.6h-59.8
		V85.7H1014.6z M1011.1,135.3h-37.1v60.8h37.1c22.4,0,32.9-11.5,32.9-30.8C1044,147.2,1033.5,135.3,1011.1,135.3z"/>
	<path class="st1" d="M1292.5,133.6H1202v49.6h80v46.1h-80v53.8h90.5v47.9h-150.3V85.7h150.3V133.6z"/>
	<path class="st1" d="M1444.6,82.9c58.4,0,102.4,32.9,116.4,86h-65.7c-10.1-21-28.7-31.5-51.4-31.5c-36.7,0-61.9,27.3-61.9,70.6
		s25.2,70.6,61.9,70.6c22.7,0,41.2-10.5,51.4-31.5h65.7c-14,53.1-58,85.6-116.4,85.6c-72.4,0-123.4-51.4-123.4-124.8
		S1372.2,82.9,1444.6,82.9z"/>
	<path class="st1" d="M1750.4,230h-93v101h-59.8V85.7h59.8v96.1h93V85.7h59.8v245.4h-59.8V230z"/>
	<path class="st1" d="M1969.2,333.5c-69.6,0-126.2-52.1-126.2-125.8s56.6-125.5,126.2-125.5c69.9,0,125.5,51.7,125.5,125.5
		S2038.8,333.5,1969.2,333.5z M1969.2,279c39.1,0,64.7-28.3,64.7-71.3c0-43.7-25.5-71.3-64.7-71.3c-39.8,0-65,27.6-65,71.3
		C1904.2,250.7,1929.4,279,1969.2,279z"/>
</g>
<g class="st0">
	<path class="st1" d="M1005.9,391v52.4h-10.5l-23.8-35.9v35.9h-10.5V391h10.5l23.8,36v-36H1005.9z"/>
	<path class="st1" d="M1040.3,444c-10.9,0-19.3-5.7-19.4-15.6h11.3c0.3,4.2,3.1,7,8,7c5,0,7.9-2.6,7.9-6.4c0-11.3-27-4.5-26.9-23.5
		c0-9.5,7.7-15.2,18.5-15.2c10.7,0,18.1,5.5,18.8,14.9h-11.6c-0.2-3.5-3-6.2-7.5-6.2c-4.1-0.2-7.2,1.9-7.2,6.2
		c0,10.5,26.9,4.7,26.9,23.1C1058.9,436.6,1052.3,444,1040.3,444z"/>
	<path class="st1" d="M1074,391.1h32.3v8.5h-21.8V413h16.7v8.3h-16.7v22.1H1074V391.1z"/>
	<path class="st1" d="M1188.4,391v52.4h-10.5l-23.8-35.9v35.9h-10.5V391h10.5l23.8,36v-36H1188.4z"/>
	<path class="st1" d="M1228.7,390.4c11.6,0,21.1,6.2,24.6,17h-12.1c-2.5-5-7-7.5-12.6-7.5c-9.2,0-15.7,6.7-15.7,17.3
		c0,10.6,6.5,17.3,15.7,17.3c5.6,0,10.1-2.5,12.6-7.6h12.1c-3.5,10.8-13,17-24.6,17c-15.1,0-26.6-11-26.6-26.7
		S1213.7,390.4,1228.7,390.4z"/>
	<path class="st1" d="M1300.5,433.5h-20.9l-3.5,10h-11L1284,391h12.2l18.8,52.4h-11.1L1300.5,433.5z M1290,403.2l-7.6,21.9h15.2
		L1290,403.2z"/>
	<path class="st1" d="M1347.7,391.1c12.6,0,18.9,7.3,18.9,16.1c0,6.4-3.5,12.8-11.9,15.1l12.5,21.2h-12.2l-11.6-20.4h-5v20.4h-10.5
		v-52.4H1347.7z M1347.4,399.8h-8.8v15.4h8.8c5.9,0,8.5-3.1,8.5-7.8C1355.8,402.7,1353.2,399.8,1347.4,399.8z"/>
	<path class="st1" d="M1424.1,444c-10.9,0-19.3-5.7-19.4-15.6h11.3c0.3,4.2,3.1,7,8,7c5,0,7.9-2.6,7.9-6.4c0-11.3-27-4.5-26.9-23.5
		c0-9.5,7.7-15.2,18.5-15.2c10.7,0,18.1,5.5,18.8,14.9h-11.6c-0.2-3.5-3-6.2-7.5-6.2c-4.1-0.2-7.2,1.9-7.2,6.2
		c0,10.5,26.9,4.7,26.9,23.1C1442.7,436.6,1436,444,1424.1,444z"/>
	<path class="st1" d="M1497,443.5h-10.6v-5.3c-2.6,3.5-7.2,5.8-12.4,5.8c-9.7,0-16.7-6.3-16.7-17.7v-24.4h10.5v22.9
		c0,6.7,3.7,10.3,9.2,10.3c5.7,0,9.3-3.6,9.3-10.3v-22.9h10.6V443.5z"/>
	<path class="st1" d="M1537.6,401.2c10.7,0,19,8.3,19,21.3s-8.3,21.6-19,21.6c-6.5,0-11.2-3.2-13.7-6.6v25.7h-10.5v-61.4h10.5v6
		C1526.3,404.4,1531.1,401.2,1537.6,401.2z M1534.8,410.4c-5.6,0-11,4.4-11,12.2s5.3,12.2,11,12.2c5.7,0,11-4.5,11-12.4
		S1540.5,410.4,1534.8,410.4z"/>
	<path class="st1" d="M1588.4,444.1c-12.1,0-20.9-8.4-20.9-21.5c0-13.1,8.6-21.5,20.9-21.5c12,0,20.5,8.2,20.5,20.6
		c0,1.4-0.1,2.7-0.3,4.1h-30.4c0.5,6.2,4.7,9.6,10,9.6c4.5,0,7-2.2,8.3-5h11.3C1605.5,438.1,1598.6,444.1,1588.4,444.1z
		 M1578.2,418.8h19.7c-0.2-5.5-4.5-8.9-9.9-8.9C1583,409.8,1579.1,413.1,1578.2,418.8z"/>
	<path class="st1" d="M1633,443.5h-10.5v-41.6h10.5v6.5c2.6-4.3,7-7.1,12.8-7.1v11h-2.8c-6.2,0-10,2.4-10,10.4V443.5z"/>
	<path class="st1" d="M1676.7,401.2c10.4,0,17.3,5.4,19.6,14.7h-11.3c-1.2-3.5-4-5.8-8.3-5.8c-5.9,0-9.8,4.4-9.8,12.5
		c0,8.1,3.9,12.5,9.8,12.5c4.4,0,7.1-2,8.3-5.7h11.3c-2.2,8.9-9.2,14.7-19.6,14.7c-12,0-20.6-8.4-20.6-21.5
		S1664.7,401.2,1676.7,401.2z"/>
	<path class="st1" d="M1728.4,444.1c-12,0-21.1-8.4-21.1-21.5c0-13.1,9.4-21.5,21.4-21.5c12,0,21.4,8.3,21.4,21.5
		C1750.1,435.7,1740.5,444.1,1728.4,444.1z M1728.4,435c5.6,0,10.9-4.1,10.9-12.3c0-8.3-5.2-12.3-10.7-12.3c-5.6,0-10.6,4-10.6,12.3
		C1718,430.9,1722.8,435,1728.4,435z"/>
	<path class="st1" d="M1822,420.5c0-6.6-3.7-10.1-9.2-10.1c-5.6,0-9.3,3.5-9.3,10.1v23H1793v-23c0-6.6-3.7-10.1-9.2-10.1
		c-5.7,0-9.4,3.5-9.4,10.1v23h-10.5v-41.6h10.5v5c2.6-3.5,7.1-5.6,12.2-5.6c6.5,0,11.8,2.8,14.6,8c2.7-4.7,8.2-8,14.3-8
		c10,0,17,6.3,17,17.8v24.4H1822V420.5z"/>
	<path class="st1" d="M1872.7,401.2c10.7,0,19,8.3,19,21.3s-8.3,21.6-19,21.6c-6.5,0-11.2-3.2-13.7-6.6v25.7h-10.5v-61.4h10.5v6
		C1861.5,404.4,1866.3,401.2,1872.7,401.2z M1870,410.4c-5.6,0-11,4.4-11,12.2s5.3,12.2,11,12.2c5.7,0,11-4.5,11-12.4
		S1875.7,410.4,1870,410.4z"/>
	<path class="st1" d="M1944.6,443.5H1934v-5.3c-2.6,3.5-7.2,5.8-12.4,5.8c-9.7,0-16.7-6.3-16.7-17.7v-24.4h10.5v22.9
		c0,6.7,3.7,10.3,9.2,10.3c5.7,0,9.3-3.6,9.3-10.3v-22.9h10.6V443.5z"/>
	<path class="st1" d="M1962.6,410.5h-5v-8.6h5v-10.3h10.6v10.3h9.3v8.6h-9.3v20.1c0,2.8,1.1,4,4.4,4h4.9v8.9h-6.6
		c-8,0-13.3-3.4-13.3-12.9V410.5z"/>
	<path class="st1" d="M2014.2,444.1c-12.1,0-20.9-8.4-20.9-21.5c0-13.1,8.6-21.5,20.9-21.5c12,0,20.5,8.2,20.5,20.6
		c0,1.4-0.1,2.7-0.3,4.1H2004c0.5,6.2,4.7,9.6,10,9.6c4.5,0,7-2.2,8.3-5h11.3C2031.4,438.1,2024.5,444.1,2014.2,444.1z
		 M2004.1,418.8h19.7c-0.2-5.5-4.5-8.9-9.9-8.9C2008.9,409.8,2004.9,413.1,2004.1,418.8z"/>
	<path class="st1" d="M2058.9,443.5h-10.5v-41.6h10.5v6.5c2.6-4.3,7-7.1,12.8-7.1v11h-2.8c-6.2,0-10,2.4-10,10.4V443.5z"/>
</g>
<path class="st1" d="M889.1,430.2c-16.5-7.5-34.4-14.5-49.8-18.6c-53.9-14.3-108.8-17.7-164.5-13.7c-78.4,5.6-154.2,23.7-230,43.3
	c-67.1,17.4-135.3,27.1-204.6,15.1c-52.9-9.1-100.2-30.3-134.8-72.7c-23.1-28.3-38.9-61.4-42.9-97.6
	c-15-136.2,91.6-234.6,218.7-210.7c38.8,7.3,89.4,41.9,104.5,70c-3.9,2.5-5.6-1.2-7.6-3C303.4,77.4,194.8,96.6,148.5,184
	c-29.1,55.1-17.9,129.9,31.4,170c38.9,31.7,84.3,41.2,131.6,47c67.2,8.2,133-2.9,198.7-14.7c62-11.1,124.5-15.5,187.4-13.8
	c52,1.4,103.3,7,151.6,28.9c10.9,4.9,17.1,10.3,26.8,17C879.1,420.5,889.1,430.2,889.1,430.2L889.1,430.2z"/>
<path class="st1" d="M922.3,453.6c-15.5-2.2-28.3-3.9-41-5.7c-51.3-7.5-102.5-6.4-153.3,3.4c-51.1,9.8-97.6,30.7-140.9,59.5
	c-70,46.6-147.3,63.9-230.8,54.7c-33.4-3.7-65.4-12.6-96.7-24.7c-5.4-2.1-5.4-2.1-12.8-9.7c10.7,0.9,19.5,1.2,28.3,2.4
	c46.9,6.4,93.7,5.7,140.2-3.3c40.8-7.9,78.8-23.9,115.7-42.6c35.2-17.8,69-38.3,105.9-52.8c50.4-19.9,102.7-25,156.4-21.9
	C824.3,414.6,910.6,439.4,922.3,453.6L922.3,453.6z"/>
<path class="st1" d="M425.8,191.2c-61.7-38.2-120-36.9-172,14.6c-21.1,20.9-30.5,48.6-32,78.8c-1.6,30.3,9.4,56.5,25.1,82
	c-24.9-3.8-50.9-54.6-51.8-95.9c-1.6-69.5,47.1-119.6,108-131.4C355.3,129.1,414.2,161.9,425.8,191.2z"/>
</svg>
